<svg version="1.1" xmlns="http://www.w3.org/2000/svg" xmlns:xlink="http://www.w3.org/1999/xlink" width="1560" height="804"><defs/><g><path fill="none" stroke="#02063B" paint-order="fill stroke markers" d=" M 20 425.2658929665875 L 21 426.4263594142886 L 22 427.58641220003193 L 23 428.7460316782495 L 24 429.90519821071126 L 25 431.06389216685795 L 26 432.22209392413333 L 27 433.3797838683167 L 28 434.5369423938548 L 29 435.6935499041941 L 30 436.84958681211236 L 31 438.0050335400509 L 32 439.1598705204453 L 33 440.3140781960576 L 34 441.4676370203071 L 35 442.6205274576013 L 36 443.77272998366703 L 37 444.92422508588083 L 38 446.0749932635996 L 39 447.22501502849065 L 40 448.37427090486193 L 41 449.5227414299917 L 42 450.6704071544583 L 43 451.8172486424692 L 44 452.96324647219063 L 45 454.108381236076 L 46 455.25263354119505 L 47 456.39598400956174 L 48 457.5384132784628 L 49 458.67990200078566 L 50 459.82043084534575 L 51 460.9599804972143 L 52 462.0985316580451 L 53 463.2360650464014 L 54 464.3725613980826 L 55 465.5080014664504 L 56 466.6423660227547 L 57 467.77563585645913 L 58 468.9077917755667 L 59 470.0388146069446 L 60 471.1686851966489 L 61 472.2973844102488 L 62 473.42489313315116 L 63 474.55119227092365 L 64 475.6762627496184 L 65 476.8000855160949 L 66 477.9226415383428 L 67 479.04391180580416 L 68 480.1638773296953 L 69 481.2825191433285 L 70 482.39981830243323 L 71 483.51575588547666 L 72 484.63031299398466 L 73 485.74347075286136 L 74 486.85521031070886 L 75 487.96551284014674 L 76 489.0743595381308 L 77 490.18173162627124 L 78 491.28761035115105 L 79 492.3919769846433 L 80 493.4948128242284 L 81 494.5960991933111 L 82 495.69581744153624 L 83 496.793948945105 L 84 497.89047510709025 L 85 498.98537735775136 L 86 500.07863715484865 L 87 501.1702359839577 L 88 502.26015535878247 L 89 503.3483768214688 L 90 504.43488194291655 L 91 505.51965232309215 L 92 506.60266959133986 L 93 507.683915406693 L 94 508.7633714581847 L 95 509.84101946515756 L 96 510.9168411775738 L 97 511.990818376324 L 98 513.0629328735356 L 99 514.1331665128812 L 100 515.2015011698854 L 101 516.267918752233 L 102 517.3324012000736 L 103 518.3949304863293 L 104 519.4554886169984 L 105 520.5140576314615 L 106 521.5706196027845 L 107 522.6251566380229 L 108 523.6776508785247 L 109 524.7280845002325 L 110 525.776439713986 L 111 526.8226987658225 L 112 527.8668439372781 L 113 528.9088575456877 L 114 529.9487219444842 L 115 530.9864195234975 L 116 532.0219327092528 L 117 533.0552439652682 L 118 534.0863357923515 L 119 535.1151907288967 L 120 536.1417913511796 L 121 537.1661202736532 L 122 538.1881601492416 L 123 539.2078936696344 L 124 540.225303565579 L 125 541.240372607174 L 126 542.2530836041602 L 127 543.2634194062122 L 128 544.2713629032286 L 129 545.2768970256218 L 130 546.2800047446074 L 131 547.2806690724917 L 132 548.2788730629607 L 133 549.2745998113658 L 134 550.267832455011 L 135 551.2585541734379 L 136 552.2467481887111 L 137 553.2323977657015 L 138 554.2154862123708 L 139 555.1959968800531 L 140 556.1739131637378 L 141 557.14921850235 L 142 558.1218963790315 L 143 559.0919303214203 L 144 560.0593039019293 L 145 561.0240007380256 L 146 561.9860044925064 L 147 562.9452988737766 L 148 563.9018676361245 L 149 564.855694579997 L 150 565.8067635522741 L 151 566.7550584465416 L 152 567.7005632033652 L 153 568.6432618105611 L 154 569.5831383034682 L 155 570.5201767652183 L 156 571.4543613270049 L 157 572.3856761683528 L 158 573.3141055173858 L 159 574.2396336510932 L 160 575.1622448955973 L 161 576.0819236264174 L 162 576.9986542687355 L 163 577.9124212976598 L 164 578.823209238487 L 165 579.7310026669652 L 166 580.6357862095547 L 167 581.5375445436883 L 168 582.4362623980311 L 169 583.3319245527388 L 170 584.2245158397154 L 171 585.1140211428707 L 172 586.0004253983752 L 173 586.8837135949165 L 174 587.7638707739522 L 175 588.6408820299646 L 176 589.5147325107118 L 177 590.3854074174801 L 178 591.2528920053343 L 179 592.1171715833675 L 180 592.9782315149498 L 181 593.8360572179763 L 182 594.6906341651137 L 183 595.541947884047 L 184 596.3899839577239 L 185 597.2347280245991 L 186 598.0761657788781 L 187 598.9142829707587 L 188 599.7490654066727 L 189 600.5804989495261 L 190 601.4085695189387 L 191 602.2332630914827 L 192 603.0545657009195 L 193 603.8724634384371 L 194 604.686942452885 L 195 605.4979889510089 L 196 606.3055891976846 L 197 607.1097295161504 L 198 607.9103962882385 L 199 608.7075759546061 L 200 609.5012550149645 L 201 610.291420028308 L 202 611.0780576131417 L 203 611.8611544477079 L 204 612.6406972702116 L 205 613.4166728790451 L 206 614.1890681330121 L 207 614.9578699515496 L 208 615.7230653149496 L 209 616.4846412645797 L 210 617.2425849031026 L 211 617.9968833946944 L 212 618.7475239652616 L 213 619.4944939026585 L 214 620.2377805569014 L 215 620.9773713403832 L 216 621.7132537280869 L 217 622.4454152577971 L 218 623.1738435303115 L 219 623.8985262096509 L 220 624.6194510232675 L 221 625.3366057622538 L 222 626.0499782815484 L 223 626.7595565001421 L 224 627.4653284012824 L 225 628.1672820326769 L 226 628.8654055066962 L 227 629.5596870005745 L 228 630.2501147566105 L 229 630.936677082366 L 230 631.6193623508639 L 231 632.2981590007859 L 232 632.973055536667 L 233 633.6440405290914 L 234 634.3111026148855 L 235 634.97423049731 L 236 635.6334129462521 L 237 636.2886387984147 L 238 636.9398969575061 L 239 637.5871763944278 L 240 638.2304661474614 L 241 638.8697553224534 L 242 639.5050330930011 L 243 640.1362887006347 L 244 640.7635114550002 L 245 641.3866907340401 L 246 642.0058159841736 L 247 642.6208767204749 L 248 643.2318625268513 L 249 643.8387630562188 L 250 644.4415680306785 L 251 645.0402672416894 L 252 645.6348505502422 L 253 646.2253078870306 L 254 646.8116292526216 L 255 647.3938047176259 L 256 647.9718244228644 L 257 648.5456785795366 L 258 649.1153574693856 L 259 649.680851444863 L 260 650.2421509292923 L 261 650.7992464170308 L 262 651.3521284736307 L 263 651.9007877359993 L 264 652.4452149125566 L 265 652.9854007833937 L 266 653.5213362004286 L 267 654.0530120875604 L 268 654.5804194408241 L 269 655.1035493285426 L 270 655.6223928914776 L 271 656.1369413429804 L 272 656.64718596914 L 273 657.153118128931 L 274 657.65472925436 L 275 658.1520108506105 L 276 658.644954496187 L 277 659.1335518430571 L 278 659.6177946167938 L 279 660.0976746167146 L 280 660.573183716021 L 281 661.0443138619363 L 282 661.5110570758411 L 283 661.9734054534092 L 284 662.4313511647415 L 285 662.8848864544981 L 286 663.3340036420296 L 287 663.778695121508 L 288 664.2189533620545 L 289 664.6547709078679 L 290 665.0861403783499 L 291 665.5130544682312 L 292 665.9355059476943 L 293 666.3534876624964 L 294 666.7669925340904 L 295 667.176013559745 L 296 667.5805438126629 L 297 667.9805764420985 L 298 668.3761046734734 L 299 668.767121808492 L 300 669.153621225254 L 301 669.5355963783672 L 302 669.9130407990579 L 303 670.2859480952807 L 304 670.6543119518266 L 305 671.0181261304303 L 306 671.3773844698754 L 307 671.732080886099 L 308 672.0822093722945 L 309 672.4277639990137 L 310 672.7687389142669 L 311 673.1051283436221 L 312 673.4369265903028 L 313 673.7641280352847 L 314 674.0867271373901 L 315 674.4047184333826 L 316 674.7180965380596 L 317 675.0268561443427 L 318 675.330992023368 L 319 675.6304990245753 L 320 675.9253720757943 L 321 676.2156061833309 L 322 676.5011964320521 L 323 676.7821379854687 L 324 677.0584260858175 L 325 677.330056054142 L 326 677.5970232903712 L 327 677.8593232733979 L 328 678.1169515611551 L 329 678.3699037906915 L 330 678.6181756782447 L 331 678.8617630193145 L 332 679.1006616887337 L 333 679.3348676407379 L 334 679.5643769090348 L 335 679.7891856068698 L 336 680.0092899270934 L 337 680.224686142225 L 338 680.4353706045156 L 339 680.6413397460108 L 340 680.8425900786096 L 341 681.0391181941251 L 342 681.2309207643409 L 343 681.4179945410683 L 344 681.6003363562008 L 345 681.7779431217684 L 346 681.9508118299889 L 347 682.1189395533198 L 348 682.2823234445073 L 349 682.4409607366349 L 350 682.5948487431697 L 351 682.7439848580086 L 352 682.888366555522 L 353 683.0279913905965 L 354 683.1628569986767 L 355 683.2929610958049 L 356 683.4183014786599 L 357 683.5388760245944 L 358 683.6546826916705 L 359 683.765719518695 L 360 683.8719846252523 L 361 683.9734762117358 L 362 684.0701925593792 L 363 684.1621320302847 L 364 684.2492930674518 L 365 684.3316741948026 L 366 684.4092740172075 L 367 684.4820912205084 L 368 684.5501245715416 L 369 684.6133729181577 L 370 684.671835189242 L 371 684.7255103947322 L 372 684.7743976256352 L 373 684.8184960540427 L 374 684.857804933145 L 375 684.8923235972436 L 376 684.9220514617627 L 377 684.9469880232593 L 378 684.967132859431 L 379 684.9824856291236 L 380 684.9930460723369 L 381 684.9988140102295 L 382 684.9997893451207 L 383 684.995972060493 L 384 684.9873622209927 L 385 684.9739599724279 L 386 684.9557655417664 L 387 684.9327792371321 L 388 684.9050014477996 L 389 684.8724326441875 L 390 684.8350733778506 L 391 684.7929242814703 L 392 684.7459860688446 L 393 684.6942595348746 L 394 684.637745555553 L 395 684.5764450879474 L 396 684.510359170185 L 397 684.4394889214352 L 398 684.3638355418904 L 399 684.283400312745 L 400 684.198184596175 L 401 684.108189835314 L 402 684.0134175542289 L 403 683.9138693578944 L 404 683.8095469321656 L 405 683.7004520437495 L 406 683.586586540175 L 407 683.4679523497614 L 408 683.3445514815867 L 409 683.216386025452 L 410 683.0834581518482 L 411 682.9457701119167 L 412 682.8033242374136 L 413 682.6561229406686 L 414 682.5041687145454 L 415 682.3474641323982 L 416 682.1860118480294 L 417 682.0198145956435 L 418 681.8488751898019 L 419 681.6731965253741 L 420 681.4927815774897 L 421 681.3076334014872 L 422 681.1177551328628 L 423 680.9231499872172 L 424 680.723821260201 L 425 680.5197723274589 L 426 680.3110066445727 L 427 680.0975277470022 L 428 679.8793392500268 L 429 679.6564448486821 L 430 679.4288483176992 L 431 679.19655351144 L 432 678.9595643638319 L 433 678.7178848883011 L 434 678.471519177705 L 435 678.2204714042628 L 436 677.9647458194843 L 437 677.704346754099 L 438 677.4392786179815 L 439 677.1695459000775 L 440 676.8951531683281 L 441 676.6161050695915 L 442 676.3324063295653 L 443 676.0440617527056 L 444 675.7510762221464 L 445 675.4534546996163 L 446 675.1512022253547 L 447 674.8443239180267 L 448 674.5328249746362 L 449 674.2167106704374 L 450 673.8959863588465 L 451 673.5706574713499 L 452 673.2407295174135 L 453 672.906208084388 L 454 672.5670988374154 L 455 672.2234075193323 L 456 671.8751399505733 L 457 671.5223020290719 L 458 671.1648997301606 L 459 670.8029391064707 L 460 670.436426287828 L 461 670.0653674811508 L 462 669.6897689703436 L 463 669.3096371161912 L 464 668.9249783562508 L 465 668.5357992047432 L 466 668.1421062524419 L 467 667.7439061665625 L 468 667.341205690649 L 469 666.9340116444594 L 470 666.522330923851 L 471 666.1061705006632 L 472 665.6855374225992 L 473 665.2604388131072 L 474 664.8308818712593 L 475 664.3968738716296 L 476 663.9584221641717 L 477 663.5155341740929 L 478 663.0682174017297 L 479 662.6164794224203 L 480 662.1603278863763 L 481 661.6997705185529 L 482 661.2348151185188 L 483 660.7654695603234 L 484 660.2917417923635 L 485 659.8136398372493 L 486 659.3311717916679 L 487 658.8443458262466 L 488 658.353170185414 L 489 657.8576531872612 L 490 657.3578032234002 L 491 656.8536287588221 L 492 656.3451383317534 L 493 655.8323405535123 L 494 655.3152441083619 L 495 654.7938577533633 L 496 654.2681903182281 L 497 653.7382507051677 L 498 653.2040478887433 L 499 652.6655909157139 L 500 652.1228889048825 L 501 651.5759510469425 L 502 651.0247866043214 L 503 650.4694049110244 L 504 649.9098153724759 L 505 649.3460274653604 L 506 648.7780507374623 L 507 648.2058948075037 L 508 647.6295693649818 L 509 647.0490841700048 L 510 646.4644490531267 L 511 645.8756739151804 L 512 645.2827687271107 L 513 644.6857435298045 L 514 644.0846084339222 L 515 643.4793736197246 L 516 642.8700493369021 L 517 642.2566459044004 L 518 641.6391737102459 L 519 641.0176432113695 L 520 640.3920649334301 L 521 639.7624494706357 L 522 639.1288074855644 L 523 638.4911497089838 L 524 637.8494869396691 L 525 637.2038300442201 L 526 636.5541899568777 L 527 635.9005776793385 L 528 635.2430042805679 L 529 634.5814808966136 L 530 633.9160187304163 L 531 633.2466290516205 L 532 632.573323196383 L 533 631.8961125671814 L 534 631.2150086326212 L 535 630.530022927241 L 536 629.8411670513174 L 537 629.1484526706688 L 538 628.4518915164575 L 539 627.7514953849911 L 540 627.0472761375229 L 541 626.3392457000508 L 542 625.6274160631156 L 543 624.9117992815976 L 544 624.1924074745127 L 545 623.4692528248073 L 546 622.7423475791514 L 547 622.0117040477321 L 548 621.277334604044 L 549 620.5392516846805 L 550 619.7974677891233 L 551 619.05199547953 L 552 618.3028473805216 L 553 617.5500361789692 L 554 616.7935746237787 L 555 616.0334755256747 L 556 615.2697517569842 L 557 614.5024162514177 L 558 613.7314820038514 L 559 612.9569620701059 L 560 612.1788695667256 L 561 611.397217670757 L 562 610.6120196195249 L 563 609.8232887104084 L 564 609.0310383006158 L 565 608.2352818069586 L 566 607.4360327056238 L 567 606.6333045319459 L 568 605.8271108801779 L 569 605.0174654032609 L 570 604.2043818125926 L 571 603.3878738777958 L 572 602.5679554264844 L 573 601.7446403440299 L 574 600.9179425733256 L 575 600.0878761145514 L 576 599.2544550249356 L 577 598.4176934185176 L 578 597.5776054659088 L 579 596.7342053940524 L 580 595.8875074859825 L 581 595.0375260805821 L 582 594.1842755723408 L 583 593.3277704111105 L 584 592.4680251018607 L 585 591.6050542044333 L 586 590.7388723332955 L 587 589.8694941572926 L 588 588.9969343993997 L 589 588.1212078364721 L 590 587.2423292989951 L 591 586.3603136708326 L 592 585.475175888976 L 593 584.5869309432901 L 594 583.6955938762596 L 595 582.8011797827351 L 596 581.9037038096761 L 597 581.0031811558957 L 598 580.0996270718026 L 599 579.1930568591429 L 600 578.2834858707411 L 601 577.37092951024 L 602 576.4554032318399 L 603 575.536922540037 L 604 574.6155029893604 L 605 573.6911601841089 L 606 572.763909778087 L 607 571.83376747434 L 608 570.9007490248869 L 609 569.9648702304547 L 610 569.0261469402109 L 611 568.084595051494 L 612 567.140230509546 L 613 566.1930693072402 L 614 565.2431274848125 L 615 564.2904211295879 L 616 563.3349663757099 L 617 562.3767794038656 L 618 561.4158764410126 L 619 560.452273760104 L 620 559.485987679813 L 621 558.5170345642557 L 622 557.5454308227153 L 623 556.5711929093632 L 624 555.5943373229808 L 625 554.6148806066797 L 626 553.6328393476222 L 627 552.6482301767397 L 628 551.6610697684515 L 629 550.671374840382 L 630 549.6791621530783 L 631 548.6844485097255 L 632 547.6872507558627 L 633 546.6875857790977 L 634 545.6854705088209 L 635 544.6809219159181 L 636 543.6739570124842 L 637 542.664592851534 L 638 541.6528465267144 L 639 540.6387351720135 L 640 539.6222759614725 L 641 538.6034861088929 L 642 537.5823828675457 L 643 536.5589835298797 L 644 535.5333054272284 L 645 534.5053659295156 L 646 533.4751824449625 L 647 532.4427724197923 L 648 531.4081533379348 L 649 530.3713427207301 L 650 529.3323581266325 L 651 528.2912171509124 L 652 527.2479374253586 L 653 526.2025366179803 L 654 525.1550324327065 L 655 524.105442609088 L 656 523.0537849219952 L 657 522.0000771813184 L 658 520.9443372316655 L 659 519.8865829520598 L 660 518.8268322556381 L 661 517.7651030893459 L 662 516.7014134336343 L 663 515.6357813021559 L 664 514.5682247414588 L 665 513.4987618306817 L 666 512.4274106812471 L 667 511.3541894365555 L 668 510.2791162716771 L 669 509.2022093930446 L 670 508.12348703814484 L 671 507.04296747520993 L 672 505.9606690029077 L 673 504.8766099500318 L 674 503.7908086751918 L 675 502.70328356650157 L 676 501.6140530412682 L 677 500.52313554568053 L 678 499.4305495544959 L 679 498.3363135707279 L 680 497.2404461253327 L 681 496.14296577689584 L 682 495.04389111131695 L 683 493.94324074149574 L 684 492.8410333070167 L 685 491.737287473833 L 686 490.632021933951 L 687 489.52525540511306 L 688 488.4170066304813 L 689 487.3072943783195 L 690 486.1961374416754 L 691 485.083554638063 L 692 483.969564809143 L 693 482.8541868204044 L 694 481.7374395608446 L 695 480.61934194265007 L 696 479.49991290087524 L 697 478.3791713931224 L 698 477.2571363992209 L 699 476.1338269209048 L 700 475.00926198149193 L 701 473.8834606255616 L 702 472.75644191863165 L 703 471.6282249468358 L 704 470.4988288166005 L 705 469.3682726543217 L 706 468.23657560604 L 707 467.10375683711726 L 708 465.9698355319119 L 709 464.83483089345356 L 710 463.69876214311836 L 711 462.56164852030304 L 712 461.42350928209976 L 713 460.2843637029691 L 714 459.1442310744141 L 715 458.00313070465404 L 716 456.86108191829635 L 717 455.7181040560103 L 718 454.57421647419886 L 719 453.42943854467165 L 720 452.28378965431585 L 721 451.1372892047686 L 722 449.98995661208846 L 723 448.84181130642617 L 724 447.6928727316956 L 725 446.5431603452453 L 726 445.3926936175279 L 727 444.2414920317709 L 728 443.0895750836466 L 729 441.93696228094245 L 730 440.7836731432297 L 731 439.62972720153357 L 732 438.4751439980025 L 733 437.31994308557677 L 734 436.16414402765764 L 735 435.00776639777587 L 736 433.85082977926083 L 737 432.6933537649079 L 738 431.53535795664726 L 739 430.37686196521224 L 740 429.21788540980623 L 741 428.0584479177713 L 742 426.8985691242556 L 743 425.7382686718805 L 744 424.57756621040846 L 745 423.4164813964096 L 746 422.2550338929297 L 747 421.0932433691563 L 748 419.9311295000862 L 749 418.7687119661921 L 750 417.6060104530892 L 751 416.44304465120194 L 752 415.27983425543033 L 753 414.11639896481705 L 754 412.95275848221297 L 755 411.78893251394385 L 756 410.6249407694772 L 757 409.4608029610873 L 758 408.29653880352254 L 759 407.1321680136706 L 760 405.96771031022547 L 761 404.80318541335265 L 762 403.63861304435557 L 763 402.47401292534204 L 764 401.3094047788893 L 765 400.1448083277106 L 766 398.9802432943216 L 767 397.81572940070544 L 768 396.65128636797925 L 769 395.4869339160601 L 770 394.3226917633315 L 771 393.15857962630844 L 772 391.9946172193044 L 773 390.8308242540973 L 774 389.66722043959527 L 775 388.50382548150327 L 776 387.3406590819891 L 777 386.1777409393504 L 778 385.01509074768006 L 779 383.85272819653323 L 780 382.69067297059433 L 781 381.5289447493427 L 782 380.36756320672004 L 783 379.2065480107968 L 784 378.0459188234398 L 785 376.88569529997847 L 786 375.7258970888721 L 787 374.5665438313778 L 788 373.40765516121695 L 789 372.24925070424314 L 790 371.0913500781101 L 791 369.9339728919388 L 792 368.7771387459859 L 793 367.6208672313114 L 794 366.46517792944763 L 795 365.3100904120666 L 796 364.1556242406491 L 797 363.0017989661538 L 798 361.8486341286853 L 799 360.69614925716394 L 800 359.54436386899437 L 801 358.3932974697361 L 802 357.2429695527721 L 803 356.09339959897886 L 804 354.94460707639746 L 805 353.7966114399024 L 806 352.64943213087327 L 807 351.5030885768648 L 808 350.35760019127855 L 809 349.2129863730335 L 810 348.0692665062376 L 811 346.92645995986027 L 812 345.7845860874031 L 813 344.64366422657315 L 814 343.50371369895515 L 815 342.36475380968415 L 816 341.2268038471185 L 817 340.0898830825136 L 818 338.95401076969534 L 819 337.8192061447339 L 820 336.685488425618 L 821 335.55287681192993 L 822 334.4213904845196 L 823 333.2910486051802 L 824 332.1618703163237 L 825 331.03387474065676 L 826 329.90708098085645 L 827 328.78150811924695 L 828 327.65717521747695 L 829 326.5341013161957 L 830 325.4123054347315 L 831 324.2918065707695 L 832 323.1726237000294 L 833 322.0547757759448 L 834 320.9382817293414 L 835 319.82316046811763 L 836 318.7094308769232 L 837 317.59711181683963 L 838 316.4862221250617 L 839 315.37678061457717 L 840 314.26880607384885 L 841 313.1623172664964 L 842 312.05733293097865 L 843 310.9538717802758 L 844 309.85195250157284 L 845 308.75159375594353 L 846 307.6528141780333 L 847 306.5556323757445 L 848 305.46006692992114 L 849 304.36613639403413 L 850 303.2738592938669 L 851 302.1832541272019 L 852 301.0943393635075 L 853 300.0071334436248 L 854 298.9216547794553 L 855 297.8379217536499 L 856 296.7559527192964 L 857 295.67576599960955 L 858 294.5973798876205 L 859 293.52081264586707 L 860 292.4460825060843 L 861 291.3732076688956 L 862 290.30220630350516 L 863 289.2330965473894 L 864 288.1658965059904 L 865 287.100624252409 L 866 286.037297827099 L 867 284.9759352375613 L 868 283.9165544580392 L 869 282.8591734292139 L 870 281.80381005790076 L 871 280.7504822167459 L 872 279.69920774392347 L 873 278.6500044428341 L 874 277.60289008180257 L 875 276.5578823937775 L 876 275.514999076031 L 877 274.47425778985865 L 878 273.43567616028054 L 879 272.39927177574316 L 880 271.36506218782085 L 881 270.33306491091906 L 882 269.30329742197756 L 883 268.2757771601748 L 884 267.25052152663204 L 885 266.22754788411874 L 886 265.20687355675915 L 887 264.18851582973815 L 888 263.1724919490089 L 889 262.1588191210007 L 890 261.14751451232786 L 891 260.1385952494984 L 892 259.1320784186246 L 893 258.1279810651332 L 894 257.1263201934772 L 895 256.1271127668474 L 896 255.13037570688545 L 897 254.13612589339715 L 898 253.14438016406663 L 899 252.1551553141711 L 900 251.16846809629683 L 901 250.18433522005478 L 902 249.202773351798 L 903 248.2237991143397 L 904 247.24742908667105 L 905 246.2736798036808 L 906 245.30256775587526 L 907 244.33410938909918 L 908 243.36832110425684 L 909 242.40521925703445 L 910 241.44482015762352 L 911 240.4871400704441 L 912 239.53219521386964 L 913 238.58000175995224 L 914 237.6305758341491 L 915 236.68393351504884 L 916 235.74009083409953 L 917 234.7990637753375 L 918 233.86086827511602 L 919 232.92552022183574 L 920 231.99303545567597 L 921 231.06342976832565 L 922 230.13671890271652 L 923 229.21291855275624 L 924 228.29204436306296 L 925 227.37411192869982 L 926 226.45913679491122 L 927 225.54713445685965 L 928 224.63812035936294 L 929 223.73210989663292 L 930 222.82911841201454 L 931 221.92916119772653 L 932 221.03225349460172 L 933 220.1384104918293 L 934 219.2476473266978 L 935 218.35997908433833 L 936 217.47542079746924 L 937 216.5939874461416 L 938 215.71569395748566 L 939 214.84055520545775 L 940 213.96858601058847 L 941 213.099801139732 L 942 212.2342153058156 L 943 211.3718431675906 L 944 210.51269932938445 L 945 209.65679834085284 L 946 208.80415469673375 L 947 207.95478283660162 L 948 207.10869714462345 L 949 206.26591194931441 L 950 205.4264415232955 L 951 204.59030008305223 L 952 203.75750178869322 L 953 202.9280607437109 L 954 202.10199099474215 L 955 201.27930653133123 L 956 200.46002128569202 L 957 199.6441491324724 L 958 198.8317038885196 L 959 198.02269931264564 L 960 197.21714910539478 L 961 196.4150669088111 L 962 195.61646630620808 L 963 194.82136082193787 L 964 194.02976392116258 L 965 193.2416890096264 L 966 192.4571494334284 L 967 191.67615847879622 L 968 190.89872937186183 L 969 190.1248752784367 L 970 189.35460930378943 L 971 188.5879444924234 L 972 187.82489382785633 L 973 187.06547023239983 L 974 186.3096865669413 L 975 185.55755563072512 L 976 184.80909016113685 L 977 184.06430283348726 L 978 183.32320626079698 L 979 182.58581299358406 L 980 181.85213551965066 L 981 181.12218626387153 L 982 180.3959775879841 L 983 179.67352179037852 L 984 178.95483110589 L 985 178.23991770559138 L 986 177.5287936965865 L 987 176.82147112180596 L 988 176.11796195980304 L 989 175.41827812455 L 990 174.72243146523746 L 991 174.0304337660732 L 992 173.34229674608218 L 993 172.658032058909 L 994 171.97765129261998 L 995 171.30116596950663 L 996 170.6285875458912 L 997 169.95992741193248 L 998 169.29519689143228 L 999 168.63440724164474 L 1000 167.97756965308446 L 1001 167.32469524933822 L 1002 166.6757950868758 L 1003 166.03088015486276 L 1004 165.38996137497475 L 1005 164.7530496012124 L 1006 164.1201556197171 L 1007 163.49129014858894 L 1008 162.86646383770503 L 1009 162.24568726853863 L 1010 161.62897095398068 L 1011 161.01632533816155 L 1012 160.40776079627366 L 1013 159.80328763439664 L 1014 159.20291608932186 L 1015 158.60665632837996 L 1016 158.01451844926825 L 1017 157.42651247987922 L 1018 156.8426483781317 L 1019 156.26293603180176 L 1020 155.68738525835468 L 1021 155.1160058047798 L 1022 154.5488073474247 L 1023 153.98579949183141 L 1024 153.42699177257396 L 1025 152.8723936530969 L 1026 152.32201452555464 L 1027 151.775863710653 L 1028 151.233950457491 L 1029 150.69628394340404 L 1030 150.16287327380908 L 1031 149.6337274820497 L 1032 149.1088555292438 L 1033 148.5882663041316 L 1034 148.0719686229246 L 1035 147.55997122915718 L 1036 147.05228279353804 L 1037 146.548911913803 L 1038 146.04986711457033 L 1039 145.55515684719558 L 1040 145.06478948962854 L 1041 144.57877334627193 L 1042 144.0971166478402 L 1043 143.61982755122023 L 1044 143.14691413933332 L 1045 142.6783844209986 L 1046 142.21424633079653 L 1047 141.75450772893544 L 1048 141.29917640111785 L 1049 140.84826005840898 L 1050 140.40176633710593 L 1051 139.95970279860825 L 1052 139.52207692929034 L 1053 139.0888961403744 L 1054 138.66016776780447 L 1055 138.23589907212306 L 1056 137.81609723834788 L 1057 137.4007693758494 L 1058 136.98992251823182 L 1059 136.58356362321285 L 1060 136.18169957250632 L 1061 135.7843371717056 L 1062 135.39148315016843 L 1063 135.00314416090265 L 1064 134.619326780454 L 1065 134.24003750879416 L 1066 133.86528276921132 L 1067 133.495068908201 L 1068 133.1294021953584 L 1069 132.76828882327283 L 1070 132.41173490742233 L 1071 132.05974648607014 L 1072 131.71232952016277 L 1073 131.36948989322872 L 1074 131.03123341127895 L 1075 130.69756580270854 L 1076 130.36849271819995 L 1077 130.0440197306267 L 1078 129.72415233495974 L 1079 129.40889594817372 L 1080 129.0982559091558 L 1081 128.79223747861482 L 1082 128.49084583899247 L 1083 128.19408609437545 L 1084 127.90196327040906 L 1085 127.61448231421178 L 1086 127.33164809429223 L 1087 127.05346540046594 L 1088 126.77993894377448 L 1089 126.51107335640597 L 1090 126.24687319161637 L 1091 125.98734292365219 L 1092 125.73248694767523 L 1093 125.48230957968775 L 1094 125.23681505645936 L 1095 124.99600753545559 L 1096 124.75989109476717 L 1097 124.52846973304105 L 1098 124.30174736941296 L 1099 124.07972784344037 L 1100 123.8624149150383 L 1101 123.64981226441512 L 1102 123.44192349201018 L 1103 123.23875211843313 L 1104 123.04030158440435 L 1105 122.84657525069605 L 1106 122.65757639807623 L 1107 122.47330822725263 L 1108 122.29377385881827 L 1109 122.11897633319927 L 1110 121.94891861060296 L 1111 121.78360357096756 L 1112 121.62303401391404 L 1113 121.46721265869803 L 1114 121.31614214416408 L 1115 121.16982502870104 L 1116 121.02826379019865 L 1117 120.89146082600547 L 1118 120.75941845288855 L 1119 120.63213890699376 L 1120 120.50962434380847 L 1121 120.39187683812457 L 1122 120.27889838400364 L 1123 120.17069089474302 L 1124 120.0672562028434 L 1125 119.96859605997793 L 1126 119.8747121369625 L 1127 119.78560602372721 L 1128 119.70127922928992 L 1129 119.62173318173018 L 1130 119.54696922816544 L 1131 119.476988634728 L 1132 119.41179258654375 L 1133 119.35138218771186 L 1134 119.29575846128631 L 1135 119.24492234925845 L 1136 119.19887471254117 L 1137 119.157616330954 L 1138 119.12114790321044 L 1139 119.08947004690543 L 1140 119.06258329850573 L 1141 119.04048811333996 L 1142 119.02318486559159 L 1143 119.01067384829219 L 1144 119.00295527331667 L 1145 119.0000292713795 L 1146 119.00189589203279 L 1147 119.00855510366523 L 1148 119.02000679350255 L 1149 119.03625076760977 L 1150 119.05728675089398 L 1151 119.08311438710962 L 1152 119.11373323886397 L 1153 119.14914278762473 L 1154 119.18934243372911 L 1155 119.23433149639334 L 1156 119.28410921372489 L 1157 119.3386747427349 L 1158 119.3980271593527 L 1159 119.46216545844123 L 1160 119.5310885538143 L 1161 119.60479527825498 L 1162 119.68328438353512 L 1163 119.76655454043674 L 1164 119.85460433877432 L 1165 119.94743228741908 L 1166 120.04503681432351 L 1167 120.14741626654893 L 1168 120.25456891029273 L 1169 120.36649293091796 L 1170 120.48318643298427 L 1171 120.60464744027968 L 1172 120.73087389585424 L 1173 120.86186366205499 L 1174 120.9976145205618 L 1175 121.13812417242514 L 1176 121.28339023810514 L 1177 121.4334102575117 L 1178 121.58818169004621 L 1179 121.7477019146445 L 1180 121.91196822982147 L 1181 122.08097785371649 L 1182 122.25472792414081 L 1183 122.43321549862588 L 1184 122.61643755447324 L 1185 122.80439098880566 L 1186 122.99707261861965 L 1187 123.19447918083961 L 1188 123.39660733237275 L 1189 123.60345365016587 L 1190 123.81501463126335 L 1191 124.0312866928665 L 1192 124.25226617239412 L 1193 124.47794932754465 L 1194 124.70833233635926 L 1195 124.94341129728718 L 1196 125.18318222925114 L 1197 125.42764107171502 L 1198 125.67678368475265 L 1199 125.93060584911814 L 1200 126.18910326631669 L 1201 126.45227155867826 L 1202 126.7201062694308 L 1203 126.99260286277644 L 1204 127.26975672396793 L 1205 127.55156315938706 L 1206 127.83801739662357 L 1207 128.12911458455693 L 1208 128.42484979343743 L 1209 128.72521801497055 L 1210 129.03021416240125 L 1211 129.33983307060015 L 1212 129.65406949615146 L 1213 129.97291811744105 L 1214 130.2963735347472 L 1215 130.6244302703318 L 1216 130.95708276853304 L 1217 131.29432539585952 L 1218 131.63615244108598 L 1219 131.98255811534938 L 1220 132.3335365522475 L 1221 132.68908180793818 L 1222 133.04918786123977 L 1223 133.4138486137332 L 1224 133.78305788986535 L 1225 134.15680943705343 L 1226 134.53509692579132 L 1227 134.9179139497561 L 1228 135.3052540259169 L 1229 135.69711059464498 L 1230 136.0934770198242 L 1231 136.49434658896377 L 1232 136.899712513312 L 1233 137.3095679279711 L 1234 137.7239058920132 L 1235 138.14271938859866 L 1236 138.56600132509408 L 1237 138.99374453319263 L 1238 139.425941769036 L 1239 139.86258571333627 L 1240 140.30366897150026 L 1241 140.74918407375498 L 1242 141.1991234752735 L 1243 141.65347955630352 L 1244 142.11224462229563 L 1245 142.57541090403407 L 1246 143.0429705577684 L 1247 143.514915665346 L 1248 143.99123823434604 L 1249 144.47193019821577 L 1250 144.95698341640588 L 1251 145.44638967450896 L 1252 145.940140684399 L 1253 146.43822808437105 L 1254 146.94064343928295 L 1255 147.44737824069887 L 1256 147.95842390703226 L 1257 148.47377178369234 L 1258 148.9934131432298 L 1259 149.5173391854849 L 1260 150.04554103773683 L 1261 150.57800975485335 L 1262 151.11473631944264 L 1263 151.6557116420062 L 1264 152.20092656109227 L 1265 152.75037184345123 L 1266 153.3040381841924 L 1267 153.8619162069407 L 1268 154.4239964639961 L 1269 154.99026943649378 L 1270 155.5607255345646 L 1271 156.13535509749798 L 1272 156.71414839390582 L 1273 157.2970956218863 L 1274 157.88418690919124 L 1275 158.475412313392 L 1276 159.07076182204844 L 1277 159.67022535287887 L 1278 160.27379275392985 L 1279 160.88145380374888 L 1280 161.4931982115574 L 1281 162.10901561742466 L 1282 162.72889559244348 L 1283 163.35282763890703 L 1284 163.98080119048615 L 1285 164.6128056124085 L 1286 165.248830201639 L 1287 165.8888641870605 L 1288 166.53289672965641 L 1289 167.18091692269473 L 1290 167.8329137919118 L 1291 168.48887629569927 L 1292 169.14879332529003 L 1293 169.81265370494694 L 1294 170.48044619215224 L 1295 171.15215947779743 L 1296 171.82778218637486 L 1297 172.5073028761711 L 1298 173.19071003945973 L 1299 173.8779921026966 L 1300 174.56913742671634 L 1301 175.26413430692853 L 1302 175.9629709735165 L 1303 176.6656355916369 L 1304 177.3721162616194 L 1305 178.08240101916851 L 1306 178.7964778355668 L 1307 179.5143346178774 L 1308 180.2359592091502 L 1309 180.96133938862644 L 1310 181.69046287194624 L 1311 182.42331731135718 L 1312 183.15989029592228 L 1313 183.90016935173085 L 1314 184.64414194211008 L 1315 185.39179546783646 L 1316 186.14311726734957 L 1317 186.89809461696706 L 1318 187.65671473109907 L 1319 188.41896476246535 L 1320 189.1848318023132 L 1321 189.95430288063508 L 1322 190.72736496638936 L 1323 191.50400496772014 L 1324 192.2842097321791 L 1325 193.0679660469491 L 1326 193.85526063906667 L 1327 194.64608017564737 L 1328 195.4404112641122 L 1329 196.23824045241324 L 1330 197.039554229262 L 1331 197.8443390243588 L 1332 198.65258120862154 L 1333 199.464267094417 L 1334 200.2793829357932 L 1335 201.09791492871105 L 1336 201.91984921127883 L 1337 202.74517186398725 L 1338 203.57386890994408 L 1339 204.40592631511223 L 1340 205.2413299885462 L 1341 206.08006578263127 L 1342 206.92211949332344 L 1343 207.76747686038914 L 1344 208.6161235676472 L 1345 209.46804524321175 L 1346 210.32322745973454 L 1347 211.18165573464995 L 1348 212.0433155304206 L 1349 212.90819225478262 L 1350 213.77627126099327 L 1351 214.64753784807937 L 1352 215.52197726108548 L 1353 216.3995746913241 L 1354 217.28031527662694 L 1355 218.16418410159557 L 1356 219.05116619785537 L 1357 219.94124654430757 L 1358 220.8344100673845 L 1359 221.73064164130523 L 1360 222.6299260883305 L 1361 223.53224817902057 L 1362 224.4375926324936 L 1363 225.34594411668314 L 1364 226.25728724859863 L 1365 227.1716065945862 L 1366 228.08888667058918 L 1367 229.0091119424106 L 1368 229.9322668259771 L 1369 230.85833568760134 L 1370 231.78730284424833 L 1371 232.71915256379975 L 1372 233.65386906532078 L 1373 234.59143651932817 L 1374 235.53183904805698 L 1375 236.4750607257301 L 1376 237.42108557882847 L 1377 238.3698975863606 L 1378 239.32148068013424 L 1379 240.27581874502937 L 1380 241.23289561926964 L 1381 242.1926950946968 L 1382 243.15520091704582 L 1383 244.12039678621883 L 1384 245.08826635656197 L 1385 246.0587932371426 L 1386 247.03196099202552 L 1387 248.00775314055306 L 1388 248.98615315762262 L 1389 249.96714447396715 L 1390 250.95071047643643 L 1391 251.93683450827717 L 1392 252.92549986941563 L 1393 253.91668981674115 L 1394 254.9103875643885 L 1395 255.90657628402246 L 1396 256.9052391051239 L 1397 257.906359115274 L 1398 258.909919360441 L 1399 259.91590284526853 L 1400 260.9242925333619 L 1401 261.9350713475769 L 1402 262.94822217031015 L 1403 263.9637278437874 L 1404 264.98157117035555 L 1405 266.00173491277263 L 1406 267.0242017945002 L 1407 268.04895449999674 L 1408 269.0759756750094 L 1409 270.10524792686874 L 1410 271.13675382478397 L 1411 272.17047590013647 L 1412 273.20639664677657 L 1413 274.24449852132074 L 1414 275.2847639434471 L 1415 276.32717529619407 L 1416 277.37171492625924 L 1417 278.4183651442969 L 1418 279.4671082252186 L 1419 280.5179264084937 L 1420 281.5708018984485 L 1421 282.6257168645699 L 1422 283.68265344180526 L 1423 284.7415937308658 L 1424 285.8025197985306 L 1425 286.8654136779487 L 1426 287.93025736894396 L 1427 288.997032838321 L 1428 290.0657220201688 L 1429 291.13630681616746 L 1430 292.2087690958956 L 1431 293.2830906971357 L 1432 294.3592534261826 L 1433 295.43723905815216 L 1434 296.51702933728825 L 1435 297.5986059772741 L 1436 298.6819506615398 L 1437 299.76704504357383 L 1438 300.85387074723377 L 1439 301.9424093670567 L 1440 303.0326424685714 L 1441 304.124551588611 L 1442 305.2181182356245 L 1443 306.3133238899906 L 1444 307.41015000433214 L 1445 308.50857800382846 L 1446 309.60858928653096 L 1447 310.7101652236787 L 1448 311.81328716001264 L 1449 312.91793641409197 L 1450 314.02409427861147 L 1451 315.1317420207166 L 1452 316.2408608823224 L 1453 317.35143208043 L 1454 318.46343680744485 L 1455 319.57685623149627 L 1456 320.69167149675496 L 1457 321.807863723753 L 1458 322.925414009704 L 1459 324.04430342882233 L 1460 325.16451303264387 L 1461 326.28602385034793 L 1462 327.4088168890769 L 1463 328.5328731342586 L 1464 329.6581735499292 L 1465 330.78469907905395 L 1466 331.9124306438509 L 1467 333.04134914611427 L 1468 334.17143546753675 L 1469 335.3026704700346 L 1470 336.4350349960706 L 1471 337.56850986897894 L 1472 338.70307589329053 L 1473 339.8387138550571 L 1474 340.975404522177 L 1475 342.1131286447215 L 1476 343.2518669552597 L 1477 344.39160016918527 L 1478 345.5323089850439 L 1479 346.6739740848587 L 1480 347.8165761344579 L 1481 348.9600957838033 L 1482 350.1045136673163 L 1483 351.2498104042067 L 1484 352.3959665988015 L 1485 353.54296284087184 L 1486 354.69077970596356 L 1487 355.8393977557244 L 1488 356.9887975382341 L 1489 358.13895958833433 L 1490 359.289864427957 L 1491 360.44149256645494 L 1492 361.5938245009324 L 1493 362.7468407165743 L 1494 363.90052168697696 L 1495 365.05484787448006 L 1496 366.2097997304955 L 1497 367.3653576958395 L 1498 368.5215022010647 L 1499 369.6782136667895 L 1500 370.8354725040316 L 1501 371.9932591145386 L 1502 373.15155389111993 L 1503 374.31033721798 L 1504 375.46958947104895 L 1505 376.6292910183155 L 1506 377.78942222016025 L 1507 378.949963429687 L 1508 380.11089499305587 L 1509 381.2721972498172 L 1510 382.43385053324283 L 1511 383.5958351706599 L 1512 384.7581314837847 L 1513 385.9207197890548 L 1514 387.0835803979626 L 1515 388.2466936173899 L 1516 389.4100397499395 L 1517 390.5735990942708 L 1518 391.7373519454316 L 1519 392.90127859519293 L 1520 394.06535933238297 L 1521 395.2295744432198 L 1522 396.39390421164586 L 1523 397.55832891966264 L 1524 398.722828847663 L 1525 399.887384274766 L 1526 401.0519754791516 L 1527 402.2165827383931 L 1528 403.3811863297918 L 1529 404.54576653071194 L 1530 405.7103036189132 L 1531 406.8747778728853 L 1532 408.0391695721829 L 1533 409.20345899775754 L 1534 410.36762643229395 L 1535 411.53165216054197 L 1536 412.6955164696512 L 1537 413.85919964950574 L 1538 415.0226819930564 L 1539 416.1859437966549" stroke-linecap="round" stroke-linejoin="round" stroke-miterlimit="10" stroke-width="40"/></g></svg>