<?xml version="1.0" encoding="UTF-8" standalone="no"?>
<!DOCTYPE svg PUBLIC "-//W3C//DTD SVG 1.1//EN"
 "http://www.w3.org/Graphics/SVG/1.1/DTD/svg11.dtd">
<!-- Generated by graphviz version 13.1.2 (20250808.2320)
 -->
<!-- Title: model Pages: 1 -->
<svg width="187pt" height="544pt"
 viewBox="0.00 0.00 187.00 544.00" xmlns="http://www.w3.org/2000/svg" xmlns:xlink="http://www.w3.org/1999/xlink">
<g id="graph0" class="graph" transform="scale(1 1) rotate(0) translate(4 539.5)">
<title>model</title>
<polygon fill="white" stroke="none" points="-4,4 -4,-539.5 182.5,-539.5 182.5,4 -4,4"/>
<!-- 0 -->
<g id="node1" class="node">
<title>0</title>
<polygon fill="lightyellow" stroke="none" points="157,-535.5 21.5,-535.5 21.5,-497 157,-497 157,-535.5"/>
<polygon fill="none" stroke="black" points="21.5,-497 21.5,-535.5 89.25,-535.5 89.25,-497 21.5,-497"/>
<text xml:space="preserve" text-anchor="start" x="26.5" y="-521" font-family="Linux libertine" font-size="10.00">input&#45;tensor</text>
<text xml:space="preserve" text-anchor="start" x="37" y="-506.75" font-family="Linux libertine" font-size="10.00">depth:0</text>
<polygon fill="none" stroke="black" points="89.25,-497 89.25,-535.5 157,-535.5 157,-497 89.25,-497"/>
<text xml:space="preserve" text-anchor="start" x="94.25" y="-513.88" font-family="Linux libertine" font-size="10.00">(1, 1, 28, 28)</text>
</g>
<!-- 1 -->
<g id="node2" class="node">
<title>1</title>
<polygon fill="#c1ffc1" stroke="none" points="171,-461 7.5,-461 7.5,-412.5 171,-412.5 171,-461"/>
<polygon fill="none" stroke="black" points="7.5,-412.5 7.5,-461 54.25,-461 54.25,-412.5 7.5,-412.5"/>
<text xml:space="preserve" text-anchor="start" x="13.25" y="-441.5" font-family="Linux libertine" font-size="10.00">Conv2d</text>
<text xml:space="preserve" text-anchor="start" x="12.5" y="-427.25" font-family="Linux libertine" font-size="10.00">depth:1</text>
<polygon fill="none" stroke="black" points="54.25,-436.75 54.25,-461 101,-461 101,-436.75 54.25,-436.75"/>
<text xml:space="preserve" text-anchor="start" x="64.12" y="-446.5" font-family="Linux libertine" font-size="10.00">input:</text>
<polygon fill="none" stroke="black" points="101,-436.75 101,-461 171,-461 171,-436.75 101,-436.75"/>
<text xml:space="preserve" text-anchor="start" x="106" y="-446.5" font-family="Linux libertine" font-size="10.00">(1, 1, 28, 28) </text>
<polygon fill="none" stroke="black" points="54.25,-412.5 54.25,-436.75 101,-436.75 101,-412.5 54.25,-412.5"/>
<text xml:space="preserve" text-anchor="start" x="59.25" y="-422.25" font-family="Linux libertine" font-size="10.00">output: </text>
<polygon fill="none" stroke="black" points="101,-412.5 101,-436.75 171,-436.75 171,-412.5 101,-412.5"/>
<text xml:space="preserve" text-anchor="start" x="106" y="-422.25" font-family="Linux libertine" font-size="10.00">(1, 8, 28, 28) </text>
</g>
<!-- 0&#45;&gt;1 -->
<g id="edge1" class="edge">
<title>0&#45;&gt;1</title>
<path fill="none" stroke="black" d="M89.25,-497.28C89.25,-489.84 89.25,-480.95 89.25,-472.33"/>
<polygon fill="black" stroke="black" points="92.75,-472.44 89.25,-462.44 85.75,-472.44 92.75,-472.44"/>
</g>
<!-- 2 -->
<g id="node3" class="node">
<title>2</title>
<polygon fill="#c1ffc1" stroke="none" points="171,-376.5 7.5,-376.5 7.5,-328 171,-328 171,-376.5"/>
<polygon fill="none" stroke="black" points="7.5,-328 7.5,-376.5 54.25,-376.5 54.25,-328 7.5,-328"/>
<text xml:space="preserve" text-anchor="start" x="18.5" y="-357" font-family="Linux libertine" font-size="10.00">ReLU</text>
<text xml:space="preserve" text-anchor="start" x="12.5" y="-342.75" font-family="Linux libertine" font-size="10.00">depth:1</text>
<polygon fill="none" stroke="black" points="54.25,-352.25 54.25,-376.5 101,-376.5 101,-352.25 54.25,-352.25"/>
<text xml:space="preserve" text-anchor="start" x="64.12" y="-362" font-family="Linux libertine" font-size="10.00">input:</text>
<polygon fill="none" stroke="black" points="101,-352.25 101,-376.5 171,-376.5 171,-352.25 101,-352.25"/>
<text xml:space="preserve" text-anchor="start" x="106" y="-362" font-family="Linux libertine" font-size="10.00">(1, 8, 28, 28) </text>
<polygon fill="none" stroke="black" points="54.25,-328 54.25,-352.25 101,-352.25 101,-328 54.25,-328"/>
<text xml:space="preserve" text-anchor="start" x="59.25" y="-337.75" font-family="Linux libertine" font-size="10.00">output: </text>
<polygon fill="none" stroke="black" points="101,-328 101,-352.25 171,-352.25 171,-328 101,-328"/>
<text xml:space="preserve" text-anchor="start" x="106" y="-337.75" font-family="Linux libertine" font-size="10.00">(1, 8, 28, 28) </text>
</g>
<!-- 1&#45;&gt;2 -->
<g id="edge2" class="edge">
<title>1&#45;&gt;2</title>
<path fill="none" stroke="black" d="M89.25,-412.77C89.25,-405.06 89.25,-396.28 89.25,-387.87"/>
<polygon fill="black" stroke="black" points="92.75,-387.91 89.25,-377.91 85.75,-387.91 92.75,-387.91"/>
</g>
<!-- 3 -->
<g id="node4" class="node">
<title>3</title>
<polygon fill="#c1ffc1" stroke="none" points="178.5,-292 0,-292 0,-243.5 178.5,-243.5 178.5,-292"/>
<polygon fill="none" stroke="black" points="0,-243.5 0,-292 61.75,-292 61.75,-243.5 0,-243.5"/>
<text xml:space="preserve" text-anchor="start" x="5" y="-272.5" font-family="Linux libertine" font-size="10.00">MaxPool2d</text>
<text xml:space="preserve" text-anchor="start" x="12.5" y="-258.25" font-family="Linux libertine" font-size="10.00">depth:1</text>
<polygon fill="none" stroke="black" points="61.75,-267.75 61.75,-292 108.5,-292 108.5,-267.75 61.75,-267.75"/>
<text xml:space="preserve" text-anchor="start" x="71.62" y="-277.5" font-family="Linux libertine" font-size="10.00">input:</text>
<polygon fill="none" stroke="black" points="108.5,-267.75 108.5,-292 178.5,-292 178.5,-267.75 108.5,-267.75"/>
<text xml:space="preserve" text-anchor="start" x="113.5" y="-277.5" font-family="Linux libertine" font-size="10.00">(1, 8, 28, 28) </text>
<polygon fill="none" stroke="black" points="61.75,-243.5 61.75,-267.75 108.5,-267.75 108.5,-243.5 61.75,-243.5"/>
<text xml:space="preserve" text-anchor="start" x="66.75" y="-253.25" font-family="Linux libertine" font-size="10.00">output: </text>
<polygon fill="none" stroke="black" points="108.5,-243.5 108.5,-267.75 178.5,-267.75 178.5,-243.5 108.5,-243.5"/>
<text xml:space="preserve" text-anchor="start" x="113.5" y="-253.25" font-family="Linux libertine" font-size="10.00">(1, 8, 14, 14) </text>
</g>
<!-- 2&#45;&gt;3 -->
<g id="edge3" class="edge">
<title>2&#45;&gt;3</title>
<path fill="none" stroke="black" d="M89.25,-328.27C89.25,-320.56 89.25,-311.78 89.25,-303.37"/>
<polygon fill="black" stroke="black" points="92.75,-303.41 89.25,-293.41 85.75,-303.41 92.75,-303.41"/>
</g>
<!-- 4 -->
<g id="node5" class="node">
<title>4</title>
<polygon fill="#c1ffc1" stroke="none" points="171,-207.5 7.5,-207.5 7.5,-159 171,-159 171,-207.5"/>
<polygon fill="none" stroke="black" points="7.5,-159 7.5,-207.5 54.25,-207.5 54.25,-159 7.5,-159"/>
<text xml:space="preserve" text-anchor="start" x="14.75" y="-188" font-family="Linux libertine" font-size="10.00">Flatten</text>
<text xml:space="preserve" text-anchor="start" x="12.5" y="-173.75" font-family="Linux libertine" font-size="10.00">depth:1</text>
<polygon fill="none" stroke="black" points="54.25,-183.25 54.25,-207.5 101,-207.5 101,-183.25 54.25,-183.25"/>
<text xml:space="preserve" text-anchor="start" x="64.12" y="-193" font-family="Linux libertine" font-size="10.00">input:</text>
<polygon fill="none" stroke="black" points="101,-183.25 101,-207.5 171,-207.5 171,-183.25 101,-183.25"/>
<text xml:space="preserve" text-anchor="start" x="106" y="-193" font-family="Linux libertine" font-size="10.00">(1, 8, 14, 14) </text>
<polygon fill="none" stroke="black" points="54.25,-159 54.25,-183.25 101,-183.25 101,-159 54.25,-159"/>
<text xml:space="preserve" text-anchor="start" x="59.25" y="-168.75" font-family="Linux libertine" font-size="10.00">output: </text>
<polygon fill="none" stroke="black" points="101,-159 101,-183.25 171,-183.25 171,-159 101,-159"/>
<text xml:space="preserve" text-anchor="start" x="114.25" y="-168.75" font-family="Linux libertine" font-size="10.00">(1, 1568) </text>
</g>
<!-- 3&#45;&gt;4 -->
<g id="edge4" class="edge">
<title>3&#45;&gt;4</title>
<path fill="none" stroke="black" d="M89.25,-243.77C89.25,-236.06 89.25,-227.28 89.25,-218.87"/>
<polygon fill="black" stroke="black" points="92.75,-218.91 89.25,-208.91 85.75,-218.91 92.75,-218.91"/>
</g>
<!-- 5 -->
<g id="node6" class="node">
<title>5</title>
<polygon fill="#c1ffc1" stroke="none" points="162.75,-123 15.75,-123 15.75,-74.5 162.75,-74.5 162.75,-123"/>
<polygon fill="none" stroke="black" points="15.75,-74.5 15.75,-123 62.5,-123 62.5,-74.5 15.75,-74.5"/>
<text xml:space="preserve" text-anchor="start" x="24.5" y="-103.5" font-family="Linux libertine" font-size="10.00">Linear</text>
<text xml:space="preserve" text-anchor="start" x="20.75" y="-89.25" font-family="Linux libertine" font-size="10.00">depth:1</text>
<polygon fill="none" stroke="black" points="62.5,-98.75 62.5,-123 109.25,-123 109.25,-98.75 62.5,-98.75"/>
<text xml:space="preserve" text-anchor="start" x="72.38" y="-108.5" font-family="Linux libertine" font-size="10.00">input:</text>
<polygon fill="none" stroke="black" points="109.25,-98.75 109.25,-123 162.75,-123 162.75,-98.75 109.25,-98.75"/>
<text xml:space="preserve" text-anchor="start" x="114.25" y="-108.5" font-family="Linux libertine" font-size="10.00">(1, 1568) </text>
<polygon fill="none" stroke="black" points="62.5,-74.5 62.5,-98.75 109.25,-98.75 109.25,-74.5 62.5,-74.5"/>
<text xml:space="preserve" text-anchor="start" x="67.5" y="-84.25" font-family="Linux libertine" font-size="10.00">output: </text>
<polygon fill="none" stroke="black" points="109.25,-74.5 109.25,-98.75 162.75,-98.75 162.75,-74.5 109.25,-74.5"/>
<text xml:space="preserve" text-anchor="start" x="120.25" y="-84.25" font-family="Linux libertine" font-size="10.00">(1, 10) </text>
</g>
<!-- 4&#45;&gt;5 -->
<g id="edge5" class="edge">
<title>4&#45;&gt;5</title>
<path fill="none" stroke="black" d="M89.25,-159.27C89.25,-151.56 89.25,-142.78 89.25,-134.37"/>
<polygon fill="black" stroke="black" points="92.75,-134.41 89.25,-124.41 85.75,-134.41 92.75,-134.41"/>
</g>
<!-- 6 -->
<g id="node7" class="node">
<title>6</title>
<polygon fill="lightyellow" stroke="none" points="146.5,-38.5 32,-38.5 32,0 146.5,0 146.5,-38.5"/>
<polygon fill="none" stroke="black" points="32,0 32,-38.5 107.25,-38.5 107.25,0 32,0"/>
<text xml:space="preserve" text-anchor="start" x="37" y="-24" font-family="Linux libertine" font-size="10.00">output&#45;tensor</text>
<text xml:space="preserve" text-anchor="start" x="51.25" y="-9.75" font-family="Linux libertine" font-size="10.00">depth:0</text>
<polygon fill="none" stroke="black" points="107.25,0 107.25,-38.5 146.5,-38.5 146.5,0 107.25,0"/>
<text xml:space="preserve" text-anchor="start" x="112.25" y="-16.88" font-family="Linux libertine" font-size="10.00">(1, 10)</text>
</g>
<!-- 5&#45;&gt;6 -->
<g id="edge6" class="edge">
<title>5&#45;&gt;6</title>
<path fill="none" stroke="black" d="M89.25,-74.92C89.25,-66.97 89.25,-57.93 89.25,-49.53"/>
<polygon fill="black" stroke="black" points="92.75,-49.77 89.25,-39.77 85.75,-49.77 92.75,-49.77"/>
</g>
</g>
</svg>
