{
  "accessors": [
    {
      "bufferView": 2,
      "componentType": 5126,
      "count": 54,
      "max": [
        0.03944455459713936,
        0.014192353934049606,
        0.046763308346271515
      ],
      "min": [
        -0.033965662121772766,
        -0.022100208327174187,
        -0.04810080677270889
      ],
      "type": "VEC3"
    },
    {
      "bufferView": 2,
      "byteOffset": 648,
      "componentType": 5126,
      "count": 54,
      "max": [
        0.9999923706054688,
        0.9999922513961792,
        0.999984622001648
      ],
      "min": [
        -0.9999922513961792,
        -0.9999923706054688,
        -0.999984622001648
      ],
      "type": "VEC3"
    },
    {
      "bufferView": 1,
      "componentType": 5126,
      "count": 54,
      "max": [
        0.8748778104782104,
        1.0
      ],
      "min": [
        0.12512218952178955,
        0.0
      ],
      "type": "VEC2"
    },
    {
      "bufferView": 0,
      "componentType": 5125,
      "count": 108,
      "type": "SCALAR"
    },
    {
      "bufferView": 2,
      "byteOffset": 1296,
      "componentType": 5126,
      "count": 84,
      "max": [
        0.4453931450843811,
        0.8266434669494629,
        0.14188629388809204
      ],
      "min": [
        -0.44539082050323486,
        -0.8266457319259644,
        -0.1418885588645935
      ],
      "type": "VEC3"
    },
    {
      "bufferView": 2,
      "byteOffset": 2304,
      "componentType": 5126,
      "count": 84,
      "max": [
        0.992149293422699,
        0.937247633934021,
        0.9422144293785095
      ],
      "min": [
        -0.9921492338180542,
        -0.9372477531433105,
        -0.9422144293785095
      ],
      "type": "VEC3"
    },
    {
      "bufferView": 1,
      "byteOffset": 432,
      "componentType": 5126,
      "count": 84,
      "max": [
        1.0000001192092896,
        1.0
      ],
      "min": [
        -3.721680741364253e-08,
        0.14899849891662598
      ],
      "type": "VEC2"
    },
    {
      "bufferView": 0,
      "byteOffset": 432,
      "componentType": 5125,
      "count": 264,
      "type": "SCALAR"
    },
    {
      "bufferView": 2,
      "byteOffset": 3312,
      "componentType": 5126,
      "count": 8,
      "max": [
        0.4267634451389313,
        0.78526771068573,
        0.10054606199264526
      ],
      "min": [
        -0.4267611503601074,
        -0.7852700352668762,
        -0.10051286220550537
      ],
      "type": "VEC3"
    },
    {
      "bufferView": 2,
      "byteOffset": 3408,
      "componentType": 5126,
      "count": 8,
      "max": [
        0.9999923706054688,
        0.0039215087890625,
        0.0
      ],
      "min": [
        -0.9999922513961792,
        0.0039215087890625,
        -0.0003449296345934272
      ],
      "type": "VEC3"
    },
    {
      "bufferView": 1,
      "byteOffset": 1104,
      "componentType": 5126,
      "count": 8,
      "max": [
        0.9907181859016418,
        0.9736199378967285
      ],
      "min": [
        0.7899365425109863,
        0.21348309516906738
      ],
      "type": "VEC2"
    },
    {
      "bufferView": 0,
      "byteOffset": 1488,
      "componentType": 5125,
      "count": 12,
      "type": "SCALAR"
    },
    {
      "bufferView": 2,
      "byteOffset": 3504,
      "componentType": 5126,
      "count": 22,
      "max": [
        -0.4132767915725708,
        0.6679538488388062,
        0.014778435230255127
      ],
      "min": [
        -0.4397132396697998,
        0.6428302526473999,
        -0.014780700206756592
      ],
      "type": "VEC3"
    },
    {
      "bufferView": 2,
      "byteOffset": 3768,
      "componentType": 5126,
      "count": 22,
      "max": [
        0.8980323672294617,
        0.8509738445281982,
        0.999984622001648
      ],
      "min": [
        -0.8980323076248169,
        -0.850973904132843,
        -0.999984622001648
      ],
      "type": "VEC3"
    },
    {
      "bufferView": 1,
      "byteOffset": 1168,
      "componentType": 5126,
      "count": 22,
      "max": [
        1.0000001192092896,
        1.0
      ],
      "min": [
        -3.721680741364253e-08,
        0.5276013612747192
      ],
      "type": "VEC2"
    },
    {
      "bufferView": 0,
      "byteOffset": 1536,
      "componentType": 5125,
      "count": 60,
      "type": "SCALAR"
    },
    {
      "bufferView": 2,
      "byteOffset": 4032,
      "componentType": 5126,
      "count": 68,
      "max": [
        -0.4190254211425781,
        -0.350009024143219,
        0.05001521110534668
      ],
      "min": [
        -0.4690239429473877,
        -0.6500005722045898,
        -0.050017476081848145
      ],
      "type": "VEC3"
    },
    {
      "bufferView": 2,
      "byteOffset": 4848,
      "componentType": 5126,
      "count": 68,
      "max": [
        0.9999923706054688,
        0.9999922513961792,
        0.999984622001648
      ],
      "min": [
        -0.9999922513961792,
        -0.9999923706054688,
        -0.999984622001648
      ],
      "type": "VEC3"
    },
    {
      "bufferView": 1,
      "byteOffset": 1344,
      "componentType": 5126,
      "count": 68,
      "max": [
        1.0000001192092896,
        0.9902296662330627
      ],
      "min": [
        -3.721680741364253e-08,
        -1.1920928955078125e-07
      ],
      "type": "VEC2"
    },
    {
      "bufferView": 0,
      "byteOffset": 1776,
      "componentType": 5125,
      "count": 168,
      "type": "SCALAR"
    },
    {
      "bufferView": 2,
      "byteOffset": 5664,
      "componentType": 5126,
      "count": 289,
      "max": [
        0.10555177927017212,
        1.498874306678772,
        1.132738471031189
      ],
      "min": [
        -0.3344287872314453,
        -0.7158965468406677,
        -0.019997060298919678
      ],
      "type": "VEC3"
    },
    {
      "bufferView": 2,
      "byteOffset": 9132,
      "componentType": 5126,
      "count": 289,
      "max": [
        0.9999923706054688,
        0.9999922513961792,
        0.999984622001648
      ],
      "min": [
        -0.9999922513961792,
        -0.9999923706054688,
        -0.999984622001648
      ],
      "type": "VEC3"
    },
    {
      "bufferView": 1,
      "byteOffset": 1888,
      "componentType": 5126,
      "count": 289,
      "max": [
        1.0000001192092896,
        1.0
      ],
      "min": [
        -3.721680741364253e-08,
        -1.1920928955078125e-07
      ],
      "type": "VEC2"
    },
    {
      "bufferView": 0,
      "byteOffset": 2448,
      "componentType": 5125,
      "count": 888,
      "type": "SCALAR"
    },
    {
      "bufferView": 2,
      "byteOffset": 12600,
      "componentType": 5126,
      "count": 4,
      "max": [
        0.5,
        0.5,
        3.0616168005906746e-17
      ],
      "min": [
        -0.5,
        -0.5,
        -3.0616168005906746e-17
      ],
      "type": "VEC3"
    },
    {
      "bufferView": 2,
      "byteOffset": 12648,
      "componentType": 5126,
      "count": 4,
      "max": [
        -0.0,
        0.0,
        -1.0
      ],
      "min": [
        -0.0,
        0.0,
        -1.0
      ],
      "type": "VEC3"
    },
    {
      "bufferView": 1,
      "byteOffset": 4200,
      "componentType": 5126,
      "count": 4,
      "max": [
        1.0,
        1.0
      ],
      "min": [
        0.0,
        0.0
      ],
      "type": "VEC2"
    },
    {
      "bufferView": 0,
      "byteOffset": 6000,
      "componentType": 5125,
      "count": 6,
      "type": "SCALAR"
    }
  ],
  "asset": {
    "extras": {
      "author": "Romeo rios vr (https://sketchfab.com/rrios2027)",
      "license": "CC-BY-4.0 (http://creativecommons.org/licenses/by/4.0/)",
      "source": "https://sketchfab.com/3d-models/animal-company-theremin-eeab3a8f02f2430abd63074e89532efa",
      "title": "animal company - theremin"
    },
    "generator": "Sketchfab-16.62.0",
    "version": "2.0"
  },
  "bufferViews": [
    {
      "buffer": 0,
      "byteLength": 6024,
      "name": "floatBufferViews",
      "target": 34963
    },
    {
      "buffer": 0,
      "byteLength": 4232,
      "byteOffset": 6024,
      "byteStride": 8,
      "name": "floatBufferViews",
      "target": 34962
    },
    {
      "buffer": 0,
      "byteLength": 12696,
      "byteOffset": 10256,
      "byteStride": 12,
      "name": "floatBufferViews",
      "target": 34962
    }
  ],
  "buffers": [
    {
      "byteLength": 22952,
      "uri": "scene.bin"
    }
  ],
  "extensionsRequired": [
    "KHR_materials_pbrSpecularGlossiness"
  ],
  "extensionsUsed": [
    "KHR_materials_pbrSpecularGlossiness"
  ],
  "images": [
    {
      "uri": "textures/PowerLightIndicator_diffuse.png"
    },
    {
      "uri": "textures/ZiplineGunMetal_diffuse.png"
    }
  ],
  "materials": [
    {
      "extensions": {
        "KHR_materials_pbrSpecularGlossiness": {
          "diffuseFactor": [
            0.4510692088495127,
            0.4510692088495127,
            0.4510692088495127,
            1.0
          ],
          "glossinessFactor": 0.0,
          "specularFactor": [
            1.0,
            1.0,
            1.0
          ]
        }
      },
      "name": "ThereminControls"
    },
    {
      "extensions": {
        "KHR_materials_pbrSpecularGlossiness": {
          "diffuseFactor": [
            1.0,
            0.0,
            0.0,
            1.0
          ],
          "glossinessFactor": 0.0,
          "specularFactor": [
            0.0,
            0.0,
            0.0
          ]
        }
      },
      "name": "ThereminBody"
    },
    {
      "extensions": {
        "KHR_materials_pbrSpecularGlossiness": {
          "diffuseFactor": [
            0.13417889647800366,
            0.13417889647800366,
            0.13417889647800366,
            1.0
          ],
          "glossinessFactor": 0.0,
          "specularFactor": [
            0.0,
            0.0,
            0.0
          ]
        }
      },
      "name": "ThereminBodySide"
    },
    {
      "extensions": {
        "KHR_materials_pbrSpecularGlossiness": {
          "diffuseFactor": [
            1.0,
            1.0,
            1.0,
            1.0
          ],
          "diffuseTexture": {
            "index": 0
          },
          "glossinessFactor": 0.0,
          "specularFactor": [
            1.0,
            1.0,
            1.0
          ]
        }
      },
      "name": "PowerLightIndicator"
    },
    {
      "extensions": {
        "KHR_materials_pbrSpecularGlossiness": {
          "diffuseFactor": [
            1.0,
            1.0,
            1.0,
            1.0
          ],
          "diffuseTexture": {
            "index": 1
          },
          "glossinessFactor": 0.0,
          "specularFactor": [
            1.0,
            1.0,
            1.0
          ]
        }
      },
      "name": "ZiplineGunMetal"
    },
    {
      "extensions": {
        "KHR_materials_pbrSpecularGlossiness": {
          "diffuseFactor": [
            0.0,
            0.0,
            0.0,
            1.0
          ],
          "glossinessFactor": 0.0,
          "specularFactor": [
            0.0,
            0.0,
            0.0
          ]
        }
      },
      "name": "ThereminScreen"
    }
  ],
  "meshes": [
    {
      "name": "Object_0",
      "primitives": [
        {
          "attributes": {
            "NORMAL": 1,
            "POSITION": 0,
            "TEXCOORD_0": 2
          },
          "indices": 3,
          "material": 0,
          "mode": 4
        }
      ]
    },
    {
      "name": "Object_1",
      "primitives": [
        {
          "attributes": {
            "NORMAL": 5,
            "POSITION": 4,
            "TEXCOORD_0": 6
          },
          "indices": 7,
          "material": 1,
          "mode": 4
        }
      ]
    },
    {
      "name": "Object_2",
      "primitives": [
        {
          "attributes": {
            "NORMAL": 9,
            "POSITION": 8,
            "TEXCOORD_0": 10
          },
          "indices": 11,
          "material": 2,
          "mode": 4
        }
      ]
    },
    {
      "name": "Object_3",
      "primitives": [
        {
          "attributes": {
            "NORMAL": 13,
            "POSITION": 12,
            "TEXCOORD_0": 14
          },
          "indices": 15,
          "material": 3,
          "mode": 4
        }
      ]
    },
    {
      "name": "Object_4",
      "primitives": [
        {
          "attributes": {
            "NORMAL": 17,
            "POSITION": 16,
            "TEXCOORD_0": 18
          },
          "indices": 19,
          "material": 0,
          "mode": 4
        }
      ]
    },
    {
      "name": "Object_5",
      "primitives": [
        {
          "attributes": {
            "NORMAL": 21,
            "POSITION": 20,
            "TEXCOORD_0": 22
          },
          "indices": 23,
          "material": 4,
          "mode": 4
        }
      ]
    },
    {
      "name": "Object_6",
      "primitives": [
        {
          "attributes": {
            "NORMAL": 25,
            "POSITION": 24,
            "TEXCOORD_0": 26
          },
          "indices": 27,
          "material": 5,
          "mode": 4
        }
      ]
    }
  ],
  "nodes": [
    {
      "children": [
        1
      ],
      "matrix": [
        -1.0,
        6.290011496532519e-32,
        -2.832769343193999e-16,
        0.0,
        -2.832769343193999e-16,
        -2.220446049250313e-16,
        1.0,
        0.0,
        0.0,
        1.0,
        2.220446049250313e-16,
        0.0,
        0.0,
        0.0,
        0.0,
        1.0
      ],
      "name": "Sketchfab_model"
    },
    {
      "children": [
        2
      ],
      "name": "root"
    },
    {
      "children": [
        3
      ],
      "matrix": [
        1.0,
        0.0,
        0.0,
        0.0,
        0.0,
        2.220446049250313e-16,
        1.0,
        0.0,
        0.0,
        -1.0,
        2.220446049250313e-16,
        0.0,
        0.0,
        0.0,
        0.0,
        1.0
      ],
      "name": "GLTF_SceneRootNode"
    },
    {
      "children": [
        4
      ],
      "name": "item_theremin_0"
    },
    {
      "children": [
        5
      ],
      "name": "Root_1"
    },
    {
      "children": [
        6,
        15
      ],
      "name": "item_view_theremin_7"
    },
    {
      "children": [
        7,
        9
      ],
      "matrix": [
        0.0,
        0.0,
        0.20000000298023224,
        0.0,
        -0.0,
        0.20000000298023224,
        0.0,
        0.0,
        -0.20000000298023224,
        -0.0,
        0.0,
        0.0,
        0.0,
        0.0,
        0.0,
        1.0
      ],
      "name": "theremin_8"
    },
    {
      "children": [
        8
      ],
      "matrix": [
        0.9379010208619538,
        -0.3469029764445346,
        1.6594947263581794e-07,
        0.0,
        1.6594947263581794e-07,
        -2.9706556325947986e-08,
        -0.9999999999999858,
        0.0,
        0.3469029764445346,
        0.937901020861968,
        2.970655643697029e-08,
        0.0,
        -0.41999998688697815,
        0.0006687445566058159,
        -0.7364723682403564,
        1.0
      ],
      "name": "PowerSwitch_9"
    },
    {
      "mesh": 0,
      "name": "Object_8"
    },
    {
      "children": [
        10,
        11,
        12,
        13,
        14
      ],
      "matrix": [
        1.0,
        0.0,
        -0.0,
        0.0,
        -0.0,
        -1.685873969314855e-07,
        -0.9999999999999858,
        0.0,
        0.0,
        0.9999999999999858,
        -1.685873969314855e-07,
        0.0,
        0.0,
        0.0,
        0.0,
        1.0
      ],
      "name": "ThereminBody_10"
    },
    {
      "mesh": 1,
      "name": "Object_10"
    },
    {
      "mesh": 2,
      "name": "Object_11"
    },
    {
      "mesh": 3,
      "name": "Object_12"
    },
    {
      "mesh": 4,
      "name": "Object_13"
    },
    {
      "mesh": 5,
      "name": "Object_14"
    },
    {
      "children": [
        16
      ],
      "matrix": [
        0.06400000303983688,
        0.0,
        0.0,
        0.0,
        0.0,
        0.03200000151991844,
        0.0,
        0.0,
        0.0,
        0.0,
        0.0020000000949949026,
        0.0,
        0.0,
        0.0,
        -0.08540000021457672,
        1.0
      ],
      "name": "EmptyScreen_11"
    },
    {
      "mesh": 6,
      "name": "Object_16"
    }
  ],
  "samplers": [
    {
      "magFilter": 9729,
      "minFilter": 9987,
      "wrapS": 10497,
      "wrapT": 10497
    }
  ],
  "scene": 0,
  "scenes": [
    {
      "name": "Sketchfab_Scene",
      "nodes": [
        0
      ]
    }
  ],
  "textures": [
    {
      "sampler": 0,
      "source": 0
    },
    {
      "sampler": 0,
      "source": 1
    }
  ]
}
